# Blender v2.76 (sub 0) OBJ File: 'alien woman.blend'
# www.blender.org
mtllib left_thigh.mtl
o Plane
v 0.165077 1.517594 0.011295
v 0.160329 1.517594 0.039558
v 0.179140 1.590243 0.009469
v 0.160329 1.517594 -0.016967
v 0.150675 1.444556 0.013369
v 0.146537 1.444556 0.038490
v 0.173808 1.590243 0.040728
v 0.173808 1.590243 -0.021791
v 0.146537 1.444556 -0.011751
v 0.217250 1.801292 0.006527
v 0.210452 1.801292 0.045195
v 0.227231 1.862583 0.006380
v 0.210452 1.801292 -0.032166
v 0.205566 1.733596 0.007052
v 0.199199 1.733596 0.043585
v 0.220074 1.862583 0.046756
v 0.220074 1.862583 -0.034094
v 0.199199 1.733596 -0.029482
v 0.022644 1.517594 0.011295
v 0.027392 1.517594 -0.016967
v 0.019188 1.590243 0.009469
v 0.027392 1.517594 0.039558
v 0.026553 1.444556 0.013369
v 0.030691 1.444556 -0.011751
v 0.024520 1.590243 -0.021791
v 0.024520 1.590243 0.040728
v 0.030691 1.444556 0.038490
v 0.093860 1.517594 0.081951
v 0.065374 1.517594 0.077240
v 0.099164 1.590243 0.087618
v 0.122347 1.517594 0.077240
v 0.088614 1.444556 0.076170
v 0.063790 1.444556 0.071984
v 0.067174 1.590243 0.082408
v 0.131154 1.590243 0.082408
v 0.113438 1.444556 0.071984
v 0.093860 1.517594 -0.059360
v 0.122347 1.517594 -0.054650
v 0.099164 1.590243 -0.068681
v 0.065374 1.517594 -0.054650
v 0.088614 1.444556 -0.049432
v 0.113438 1.444556 -0.045245
v 0.131154 1.590243 -0.063471
v 0.067174 1.590243 -0.063471
v 0.063790 1.444556 -0.045245
v 0.243050 1.985717 0.007626
v 0.235281 1.985717 0.050077
v 0.244691 2.010720 0.008391
v 0.235281 1.985717 -0.035637
v 0.240046 1.954698 0.006992
v 0.232410 1.954698 0.049223
v 0.236834 2.010720 0.050779
v 0.236834 2.010720 -0.035178
v 0.232410 1.954698 -0.035732
v 0.013330 1.801292 0.006158
v 0.020127 1.801292 -0.032412
v 0.012496 1.862583 0.004905
v 0.020127 1.801292 0.044752
v 0.014548 1.733596 0.007052
v 0.020916 1.733596 -0.029482
v 0.019654 1.862583 -0.035078
v 0.019654 1.862583 0.044985
v 0.020916 1.733596 0.043585
v 0.115290 1.801292 0.102921
v 0.074506 1.801292 0.096360
v 0.119864 1.862583 0.106214
v 0.156074 1.801292 0.096606
v 0.110057 1.733596 0.098386
v 0.071854 1.733596 0.092297
v 0.076917 1.862583 0.099017
v 0.162811 1.862583 0.100001
v 0.148261 1.733596 0.092297
v 0.115290 1.801292 -0.090237
v 0.156074 1.801292 -0.083774
v 0.119864 1.862583 -0.094929
v 0.074506 1.801292 -0.083823
v 0.110057 1.733596 -0.084283
v 0.148261 1.733596 -0.078194
v 0.162811 1.862583 -0.088126
v 0.076917 1.862583 -0.088322
v 0.071854 1.733596 -0.078194
v 0.009993 1.985717 -0.004550
v 0.017761 1.985717 -0.043754
v 0.008976 2.010720 -0.009319
v 0.017761 1.985717 0.035466
v 0.010941 1.954698 -0.000387
v 0.018578 1.954698 -0.040651
v 0.016833 2.010720 -0.046984
v 0.016833 2.010720 0.029527
v 0.018578 1.954698 0.040368
v 0.126521 1.985717 0.104622
v 0.079910 1.985717 0.093691
v 0.126833 2.010720 0.101078
v 0.173133 1.985717 0.101808
v 0.125494 1.954698 0.107036
v 0.079673 1.954698 0.097660
v 0.079690 2.010720 0.088405
v 0.173976 2.010720 0.100212
v 0.171315 1.954698 0.102580
v 0.126521 1.985717 -0.101546
v 0.173133 1.985717 -0.093862
v 0.126833 2.010720 -0.102006
v 0.079910 1.985717 -0.095485
v 0.125494 1.954698 -0.100431
v 0.171315 1.954698 -0.093024
v 0.173976 2.010720 -0.094056
v 0.079690 2.010720 -0.096417
v 0.079673 1.954698 -0.094008
v 0.015848 2.032715 0.023069
v 0.007924 2.032715 -0.014391
v 0.015848 2.032715 -0.050277
v 0.104479 1.371323 -0.035549
v 0.083396 1.371323 -0.039200
v 0.062314 1.371323 -0.035549
v 0.104479 1.371323 0.066682
v 0.083396 1.371323 0.070333
v 0.062314 1.371323 0.066682
v 0.034203 1.371323 0.037473
v 0.030690 1.371323 0.015567
v 0.034203 1.371323 -0.006340
v 0.132589 1.371323 -0.006340
v 0.136103 1.371323 0.015567
v 0.132589 1.371323 0.037473
v 0.139809 1.662308 -0.071416
v 0.104554 1.662308 -0.077089
v 0.069298 1.662308 -0.071416
v 0.139809 1.662308 0.087442
v 0.104554 1.662308 0.093115
v 0.069298 1.662308 0.087442
v 0.022290 1.662308 0.042054
v 0.016414 1.662308 0.008013
v 0.022290 1.662308 -0.026028
v 0.186817 1.662308 -0.026028
v 0.192693 1.662308 0.008013
v 0.186817 1.662308 0.042054
v 0.157813 1.590243 0.066778
v 0.146086 1.517594 0.063109
v 0.134125 1.444556 0.059423
v 0.134125 1.444556 -0.032685
v 0.146086 1.517594 -0.040519
v 0.157813 1.590243 -0.047841
v 0.040515 1.590243 -0.047841
v 0.041635 1.517594 -0.040519
v 0.043103 1.444556 -0.032685
v 0.043103 1.444556 0.059423
v 0.041635 1.517594 0.063109
v 0.040515 1.590243 0.066778
v 0.168037 1.914656 -0.091219
v 0.123394 1.914656 -0.098335
v 0.078751 1.914656 -0.091711
v 0.168037 1.914656 0.102115
v 0.123394 1.914656 0.107755
v 0.078751 1.914656 0.099655
v 0.019228 1.914656 0.043714
v 0.011787 1.914656 0.002865
v 0.019228 1.914656 -0.037738
v 0.227560 1.914656 -0.035278
v 0.235001 1.914656 0.006555
v 0.227560 1.914656 0.048141
v 0.198600 1.862583 0.080231
v 0.190060 1.801292 0.077376
v 0.180097 1.733596 0.074030
v 0.180097 1.733596 -0.059927
v 0.190060 1.801292 -0.064421
v 0.198600 1.862583 -0.067864
v 0.041128 1.862583 -0.068356
v 0.040519 1.801292 -0.064544
v 0.040018 1.733596 -0.059927
v 0.040018 1.733596 0.074030
v 0.040519 1.801292 0.076958
v 0.041128 1.862583 0.078558
v 0.174333 2.032715 -0.093927
v 0.126788 2.032715 -0.102138
v 0.079242 2.032715 -0.097076
v 0.174333 2.032715 0.098203
v 0.126788 2.032715 0.096969
v 0.079242 2.032715 0.082461
v 0.237727 2.032715 -0.034535
v 0.245652 2.032715 0.009222
v 0.237727 2.032715 0.051405
v 0.213262 2.010720 0.084036
v 0.211975 1.985717 0.084032
v 0.209499 1.954698 0.083555
v 0.209499 1.954698 -0.071539
v 0.211975 1.985717 -0.072028
v 0.213262 2.010720 -0.071976
v 0.040404 2.010720 -0.077880
v 0.041067 1.985717 -0.076086
v 0.041489 1.954698 -0.073999
v 0.041489 1.954698 0.075192
v 0.041067 1.985717 0.070233
v 0.040404 2.010720 0.063965
v 0.122048 1.371323 -0.024596
v 0.044745 1.371323 -0.024596
v 0.122048 1.371323 0.055729
v 0.044745 1.371323 0.055729
v 0.169189 1.662308 -0.054395
v 0.039918 1.662308 -0.054395
v 0.169189 1.662308 0.070421
v 0.039918 1.662308 0.070421
v 0.205239 1.914656 -0.070241
v 0.041549 1.914656 -0.071471
v 0.205239 1.914656 0.082367
v 0.041549 1.914656 0.078185
v 0.213955 2.032715 -0.071655
v 0.039621 2.032715 -0.079526
v 0.213955 2.032715 0.083802
v 0.039621 2.032715 0.057041
vn -0.981500 0.191200 0.000000
vn -0.981000 0.193700 -0.000100
vn -0.924300 0.179600 -0.336700
vn -0.922600 0.177500 -0.342300
vn -0.702400 0.150500 -0.695700
vn -0.696500 0.148700 -0.702000
vn -0.980900 0.194400 -0.003000
vn -0.923500 0.180000 -0.338800
vn -0.697800 0.150300 -0.700300
vn -0.921600 0.174200 -0.346700
vn -0.982400 0.186900 0.000100
vn -0.921100 0.169700 -0.350300
vn -0.983500 0.180800 0.000200
vn -0.692100 0.146200 -0.706800
vn -0.688700 0.143000 -0.710800
vn -0.918900 0.189300 0.346000
vn -0.919500 0.195100 0.341200
vn -0.688300 0.177200 0.703500
vn -0.692100 0.185000 0.697700
vn -0.919000 0.181100 0.350100
vn -0.685800 0.166100 0.708600
vn -0.921000 0.198500 0.335300
vn -0.922100 0.199600 0.331300
vn -0.697600 0.189800 0.690800
vn -0.697500 0.191300 0.690600
vn -0.986300 0.164900 0.000200
vn -0.984800 0.173400 0.000200
vn -0.920900 0.164100 -0.353500
vn -0.920900 0.157000 -0.356700
vn -0.685800 0.138500 -0.714500
vn -0.682400 0.131700 -0.719000
vn -0.921100 0.146900 -0.360600
vn -0.988100 0.153600 0.000100
vn -0.921600 0.130000 -0.365600
vn -0.990800 0.135500 -0.000100
vn -0.677400 0.120600 -0.725600
vn -0.669800 0.101000 -0.735600
vn -0.921700 0.148000 0.358600
vn -0.920400 0.161000 0.356200
vn -0.682900 0.127600 0.719200
vn -0.683200 0.141600 0.716300
vn -0.923800 0.128100 0.360800
vn -0.683600 0.107900 0.721800
vn -0.919600 0.171400 0.353400
vn -0.684300 0.153800 0.712800
vn 0.998700 0.049900 0.000100
vn 0.998500 0.054300 0.000000
vn 0.937600 0.067900 0.341100
vn 0.935800 0.063100 0.346900
vn 0.708200 0.091200 0.700100
vn 0.702300 0.085900 0.706700
vn 0.998400 0.055600 -0.003100
vn 0.940700 0.069100 0.332000
vn 0.718400 0.092300 0.689400
vn 0.934600 0.054500 0.351600
vn 0.999100 0.042500 0.000200
vn 0.933800 0.042100 0.355300
vn 0.999500 0.031900 0.000300
vn 0.698000 0.076400 0.712000
vn 0.694800 0.062700 0.716400
vn 0.935400 0.038600 -0.351400
vn 0.936800 0.044500 -0.347100
vn 0.699600 0.044300 -0.713100
vn 0.704200 0.048200 -0.708300
vn 0.934400 0.030200 -0.354800
vn 0.696100 0.038600 -0.716900
vn 0.938700 0.048000 -0.341500
vn 0.939600 0.049200 -0.338600
vn 0.710200 0.050500 -0.702100
vn 0.715900 0.051200 -0.696300
vn 0.000100 0.078900 -0.996900
vn 0.000100 0.079800 -0.996800
vn 0.348600 0.060700 -0.935300
vn 0.343000 0.059500 -0.937400
vn 0.007700 0.079600 -0.996800
vn 0.356800 0.060900 -0.932200
vn 0.338800 0.057400 -0.939100
vn 0.000200 0.077400 -0.997000
vn 0.335600 0.054200 -0.940400
vn 0.000200 0.075300 -0.997200
vn -0.336900 0.107000 -0.935400
vn -0.341100 0.108700 -0.933700
vn -0.333700 0.104800 -0.936800
vn -0.346700 0.110100 -0.931500
vn -0.340100 0.109700 -0.933900
vn 0.000200 0.131400 0.991300
vn 0.000200 0.137100 0.990500
vn -0.344000 0.163200 0.924600
vn -0.338700 0.157600 0.927600
vn 0.007600 0.138500 0.990300
vn -0.339900 0.164700 0.925900
vn -0.334800 0.148400 0.930500
vn 0.000300 0.121900 0.992500
vn -0.332100 0.135700 0.933400
vn 0.000300 0.108400 0.994100
vn 0.337600 0.099600 0.936000
vn 0.341500 0.109200 0.933500
vn 0.334700 0.085600 0.938400
vn 0.346900 0.114800 0.930800
vn 0.357500 0.116100 0.926700
vn -0.996800 0.079700 -0.001000
vn -0.994000 0.109700 -0.000400
vn -0.922100 0.105500 -0.372100
vn -0.921800 0.077200 -0.379900
vn -0.658500 0.072200 -0.749100
vn -0.642800 0.039100 -0.765000
vn -0.919900 0.052200 -0.388500
vn -0.998600 0.053100 -0.002000
vn -0.917800 0.041900 -0.394600
vn -0.999100 0.042300 -0.007100
vn -0.622800 0.009900 -0.782300
vn -0.615900 -0.001600 -0.787800
vn -0.930100 0.039300 0.365300
vn -0.928700 0.068000 0.364400
vn -0.686500 0.022400 0.726700
vn -0.686000 0.049900 0.725800
vn -0.932300 0.027700 0.360600
vn -0.690100 0.011100 0.723600
vn -0.926400 0.100300 0.362800
vn -0.684800 0.081000 0.724100
vn 0.999900 0.015100 -0.000300
vn 0.999800 0.021600 0.000000
vn 0.933100 0.030500 0.358400
vn 0.931900 0.024100 0.361800
vn 0.691900 0.049400 0.720200
vn 0.688300 0.041300 0.724300
vn 0.930100 0.023600 0.366500
vn 0.999900 0.012400 -0.000800
vn 0.927200 0.032300 0.373200
vn 0.999900 0.014900 -0.001900
vn 0.682700 0.038500 0.729700
vn 0.674000 0.043300 0.737400
vn 0.930500 0.003200 -0.366100
vn 0.932200 0.012500 -0.361800
vn 0.688200 0.002100 -0.725500
vn 0.690200 0.019600 -0.723300
vn 0.928100 -0.009600 -0.372200
vn 0.685900 -0.028900 -0.727100
vn 0.933300 0.021000 -0.358300
vn 0.692800 0.030900 -0.720400
vn 0.004300 0.060300 -0.998100
vn 0.000900 0.070600 -0.997500
vn 0.333200 0.048200 -0.941600
vn 0.333100 0.036300 -0.942200
vn 0.336500 0.015200 -0.941600
vn 0.012900 0.041400 -0.999100
vn 0.344000 -0.024300 -0.938600
vn 0.028700 0.005500 -0.999600
vn -0.315600 0.078100 -0.945600
vn -0.325200 0.092600 -0.941100
vn -0.299300 0.051000 -0.952800
vn -0.330500 0.100700 -0.938400
vn -0.000900 0.082500 0.996600
vn 0.000000 0.094400 0.995500
vn -0.330200 0.121900 0.936000
vn -0.329000 0.109300 0.938000
vn -0.328600 0.096200 0.939500
vn -0.002900 0.071700 0.997400
vn -0.329200 0.079800 0.940900
vn -0.006600 0.060500 0.998100
vn 0.323200 0.054200 0.944800
vn 0.328500 0.061300 0.942500
vn 0.315000 0.050300 0.947700
vn 0.332000 0.071700 0.940500
vn 0.999600 0.028700 -0.002000
vn 0.999800 0.021400 -0.002200
vn 0.922200 0.049100 0.383400
vn 0.915300 0.068900 0.396800
vn 0.661400 0.054200 0.748000
vn 0.645100 0.066700 0.761200
vn 0.906400 0.087300 0.413300
vn 0.999400 0.035500 -0.000200
vn 0.893900 0.095700 0.438000
vn 0.998400 0.046100 0.033100
vn 0.625800 0.077600 0.776100
vn 0.613700 0.081900 0.785200
vn 0.917900 -0.068300 -0.390800
vn 0.921600 -0.049000 -0.385000
vn 0.681000 -0.169100 -0.712500
vn 0.682500 -0.125500 -0.720100
vn 0.930900 -0.063300 -0.359700
vn 0.702400 -0.179800 -0.688700
vn 0.925200 -0.027500 -0.378500
vn 0.684400 -0.074200 -0.725300
vn 0.083700 -0.106300 -0.990800
vn 0.052900 -0.047300 -0.997500
vn 0.356400 -0.082000 -0.930700
vn 0.371700 -0.146000 -0.916800
vn 0.389000 -0.199500 -0.899300
vn 0.119000 -0.156100 -0.980500
vn 0.408800 -0.221700 -0.885300
vn 0.140700 -0.177200 -0.974100
vn -0.203300 -0.073600 -0.976300
vn -0.242000 -0.034400 -0.969700
vn -0.185500 -0.089000 -0.978600
vn -0.274600 0.011000 -0.961500
vn -0.018300 0.030600 0.999400
vn -0.011800 0.046700 0.998800
vn -0.330500 0.058200 0.942000
vn -0.332100 0.033300 0.942600
vn -0.333700 0.011200 0.942600
vn -0.025300 0.016200 0.999500
vn -0.335800 0.002000 0.941900
vn -0.028300 0.010300 0.999500
vn 0.274500 0.041000 0.960700
vn 0.290000 0.044300 0.956000
vn 0.268000 0.039800 0.962600
vn 0.303900 0.047700 0.951500
usemtl Material.004
s 1
f 1//1 5//2 6//3 2//4
f 2//4 6//3 138//5 137//6
f 5//2 122//7 123//8 6//3
f 6//3 123//8 195//9 138//5
f 1//1 2//4 7//10 3//11
f 3//11 7//10 135//12 134//13
f 2//4 137//6 136//14 7//10
f 7//10 136//14 199//15 135//12
f 1//1 3//11 8//16 4//17
f 4//17 8//16 141//18 140//19
f 3//11 134//13 133//20 8//16
f 8//16 133//20 197//21 141//18
f 1//1 4//17 9//22 5//2
f 5//2 9//22 121//23 122//7
f 4//17 140//19 139//24 9//22
f 9//22 139//24 193//25 121//23
f 10//26 14//27 15//28 11//29
f 11//29 15//28 162//30 161//31
f 14//27 134//13 135//12 15//28
f 15//28 135//12 199//15 162//30
f 10//26 11//29 16//32 12//33
f 12//33 16//32 159//34 158//35
f 11//29 161//31 160//36 16//32
f 16//32 160//36 203//37 159//34
f 10//26 12//33 17//38 13//39
f 13//39 17//38 165//40 164//41
f 12//33 158//35 157//42 17//38
f 17//38 157//42 201//43 165//40
f 10//26 13//39 18//44 14//27
f 14//27 18//44 133//20 134//13
f 13//39 164//41 163//45 18//44
f 18//44 163//45 197//21 133//20
f 19//46 23//47 24//48 20//49
f 20//49 24//48 144//50 143//51
f 23//47 119//52 120//53 24//48
f 24//48 120//53 194//54 144//50
f 19//46 20//49 25//55 21//56
f 21//56 25//55 132//57 131//58
f 20//49 143//51 142//59 25//55
f 25//55 142//59 198//60 132//57
f 19//46 21//56 26//61 22//62
f 22//62 26//61 147//63 146//64
f 21//56 131//58 130//65 26//61
f 26//61 130//65 200//66 147//63
f 19//46 22//62 27//67 23//47
f 23//47 27//67 118//68 119//52
f 22//62 146//64 145//69 27//67
f 27//67 145//69 196//70 118//68
f 28//71 32//72 33//73 29//74
f 29//74 33//73 145//69 146//64
f 32//72 116//75 117//76 33//73
f 33//73 117//76 196//70 145//69
f 28//71 29//74 34//77 30//78
f 30//78 34//77 129//79 128//80
f 29//74 146//64 147//63 34//77
f 34//77 147//63 200//66 129//79
f 28//71 30//78 35//81 31//82
f 31//82 35//81 136//14 137//6
f 30//78 128//80 127//83 35//81
f 35//81 127//83 199//15 136//14
f 28//71 31//82 36//84 32//72
f 32//72 36//84 115//85 116//75
f 31//82 137//6 138//5 36//84
f 36//84 138//5 195//9 115//85
f 37//86 41//87 42//88 38//89
f 38//89 42//88 139//24 140//19
f 41//87 113//90 112//91 42//88
f 42//88 112//91 193//25 139//24
f 37//86 38//89 43//92 39//93
f 39//93 43//92 124//94 125//95
f 38//89 140//19 141//18 43//92
f 43//92 141//18 197//21 124//94
f 37//86 39//93 44//96 40//97
f 40//97 44//96 142//59 143//51
f 39//93 125//95 126//98 44//96
f 44//96 126//98 198//60 142//59
f 37//86 40//97 45//99 41//87
f 41//87 45//99 114//100 113//90
f 40//97 143//51 144//50 45//99
f 45//99 144//50 194//54 114//100
f 46//101 50//102 51//103 47//104
f 47//104 51//103 183//105 182//106
f 50//102 158//35 159//34 51//103
f 51//103 159//34 203//37 183//105
f 46//101 47//104 52//107 48//108
f 48//108 52//107 180//109 179//110
f 47//104 182//106 181//111 52//107
f 52//107 181//111 207//112 180//109
f 46//101 48//108 53//113 49//114
f 49//114 53//113 186//115 185//116
f 48//108 179//110 178//117 53//113
f 53//113 178//117 205//118 186//115
f 46//101 49//114 54//119 50//102
f 50//102 54//119 157//42 158//35
f 49//114 185//116 184//120 54//119
f 54//119 184//120 201//43 157//42
f 55//121 59//122 60//123 56//124
f 56//124 60//123 168//125 167//126
f 59//122 131//58 132//57 60//123
f 60//123 132//57 198//60 168//125
f 55//121 56//124 61//127 57//128
f 57//128 61//127 156//129 155//130
f 56//124 167//126 166//131 61//127
f 61//127 166//131 202//132 156//129
f 55//121 57//128 62//133 58//134
f 58//134 62//133 171//135 170//136
f 57//128 155//130 154//137 62//133
f 62//133 154//137 204//138 171//135
f 55//121 58//134 63//139 59//122
f 59//122 63//139 130//65 131//58
f 58//134 170//136 169//140 63//139
f 63//139 169//140 200//66 130//65
f 64//141 68//142 69//143 65//144
f 65//144 69//143 169//140 170//136
f 68//142 128//80 129//79 69//143
f 69//143 129//79 200//66 169//140
f 64//141 65//144 70//145 66//146
f 66//146 70//145 153//147 152//148
f 65//144 170//136 171//135 70//145
f 70//145 171//135 204//138 153//147
f 64//141 66//146 71//149 67//150
f 67//150 71//149 160//36 161//31
f 66//146 152//148 151//151 71//149
f 71//149 151//151 203//37 160//36
f 64//141 67//150 72//152 68//142
f 68//142 72//152 127//83 128//80
f 67//150 161//31 162//30 72//152
f 72//152 162//30 199//15 127//83
f 73//153 77//154 78//155 74//156
f 74//156 78//155 163//45 164//41
f 77//154 125//95 124//94 78//155
f 78//155 124//94 197//21 163//45
f 73//153 74//156 79//157 75//158
f 75//158 79//157 148//159 149//160
f 74//156 164//41 165//40 79//157
f 79//157 165//40 201//43 148//159
f 73//153 75//158 80//161 76//162
f 76//162 80//161 166//131 167//126
f 75//158 149//160 150//163 80//161
f 80//161 150//163 202//132 166//131
f 73//153 76//162 81//164 77//154
f 77//154 81//164 126//98 125//95
f 76//162 167//126 168//125 81//164
f 81//164 168//125 198//60 126//98
f 82//165 86//166 87//167 83//168
f 83//168 87//167 189//169 188//170
f 86//166 155//130 156//129 87//167
f 87//167 156//129 202//132 189//169
f 82//165 83//168 88//171 84//172
f 84//172 88//171 111//173 110//174
f 83//168 188//170 187//175 88//171
f 88//171 187//175 206//176 111//173
f 82//165 84//172 89//177 85//178
f 85//178 89//177 192//179 191//180
f 84//172 110//174 109//181 89//177
f 89//177 109//181 208//182 192//179
f 82//165 85//178 90//183 86//166
f 86//166 90//183 154//137 155//130
f 85//178 191//180 190//184 90//183
f 90//183 190//184 204//138 154//137
f 91//185 95//186 96//187 92//188
f 92//188 96//187 190//184 191//180
f 95//186 152//148 153//147 96//187
f 96//187 153//147 204//138 190//184
f 91//185 92//188 97//189 93//190
f 93//190 97//189 177//191 176//192
f 92//188 191//180 192//179 97//189
f 97//189 192//179 208//182 177//191
f 91//185 93//190 98//193 94//194
f 94//194 98//193 181//111 182//106
f 93//190 176//192 175//195 98//193
f 98//193 175//195 207//112 181//111
f 91//185 94//194 99//196 95//186
f 95//186 99//196 151//151 152//148
f 94//194 182//106 183//105 99//196
f 99//196 183//105 203//37 151//151
f 100//197 104//198 105//199 101//200
f 101//200 105//199 184//120 185//116
f 104//198 149//160 148//159 105//199
f 105//199 148//159 201//43 184//120
f 100//197 101//200 106//201 102//202
f 102//202 106//201 172//203 173//204
f 101//200 185//116 186//115 106//201
f 106//201 186//115 205//118 172//203
f 100//197 102//202 107//205 103//206
f 103//206 107//205 187//175 188//170
f 102//202 173//204 174//207 107//205
f 107//205 174//207 206//176 187//175
f 100//197 103//206 108//208 104//198
f 104//198 108//208 150//163 149//160
f 103//206 188//170 189//169 108//208
f 108//208 189//169 202//132 150//163
